:version 1.10
:name ASF
:units
  mass 1
  length 1
  angle deg
:documentation
  ASF file generated by Kaydara
:root
  axis xyz
  order  tx ty tz rx ry rz
  position 0 0 0
  orientation 0 0 0
:bonedata
  begin
    id 1
    name RightUpLegDummy
    direction -0.718183 -0.695806 0.00816078
    length 4.904
    axis 0 0 0 xyz
  end
  begin
    id 2
    name RightUpLeg
    direction 3.53373e-006 -0.995788 0.0916898
    length 17.4976
    axis -3.49089 -0.000906625 0.000286804 xyz
    dof rx ry rz
  end
  begin
    id 3
    name RightLeg
    direction 0.00371092 -0.995096 -0.0988419
    length 16.5821
    axis 3.68512 0.0193738 -0.131023 xyz
    dof rx ry rz
  end
  begin
    id 4
    name RightFoot
    direction 0.00079151 -0.46099 0.887405
    length 3.77069
    axis 4.81691e-005 -0.120479 -0.188788 xyz
    dof rx ry rz
  end
  begin
    id 5
    name RightToes
    direction 0 0 0
    length 0
    axis 0 0 0 xyz
    dof rx ry rz
  end
  begin
    id 6
    name SpineDummy
    direction 8.3039e-015 1 4.57515e-016
    length 4.6813
    axis 0 0 0 xyz
  end
  begin
    id 7
    name Spine
    direction -3.15643e-008 0.999988 0.00495137
    length 10.1015
    axis -0.001389 0.000121418 2.40972e-006 xyz
    dof rx ry rz
  end
  begin
    id 8
    name Spine1
    direction 0 0 0
    length 0
    axis -0.001389 0.000121451 1.30017e-006 xyz
    dof rx ry rz
  end
  begin
    id 9
    name HEadDummy
    direction -1.99912e-008 0.999999 0.00127422
    length 3.43865
    axis -0.001389 0.000121451 1.30017e-006 xyz
  end
  begin
    id 10
    name HEad
    direction 0 0 0
    length 0
    axis 0 0 0 xyz
    dof rx ry rz
  end
  begin
    id 11
    name LeftShoulder1Dummy
    direction 0.998891 -0.0402509 -0.0244456
    length 3.5433
    axis -0.001389 0.000121451 1.30017e-006 xyz
  end
  begin
    id 12
    name LeftShoulder1
    direction 0.99951 -0.000327763 0.0313091
    length 4.05031
    axis -0.001389 0.000121451 1.30017e-006 xyz
    dof rx ry rz
  end
  begin
    id 13
    name LeftArm
    direction 0.998561 -0.00100056 -0.0536182
    length 10.3537
    axis -23.1894 0.134784 0.967509 xyz
    dof rx ry rz
  end
  begin
    id 14
    name LeftForeArm
    direction 0.998903 0.00866432 0.046012
    length 8.70632
    axis -9.91835 -0.06569 -0.177794 xyz
    dof rx ry rz
  end
  begin
    id 15
    name LeftHand
    direction 0 0 0
    length 0
    axis 0 0 0 xyz
    dof rx ry rz
  end
  begin
    id 16
    name RightShoulderDummy
    direction -0.998891 -0.0402509 -0.0244414
    length 3.5433
    axis -0.001389 0.000121451 1.30017e-006 xyz
  end
  begin
    id 17
    name RightShoulder
    direction -0.99951 -0.000327807 0.0313133
    length 4.05031
    axis 0.215806 0.000203643 -0.0068026 xyz
    dof rx ry rz
  end
  begin
    id 18
    name RightArm
    direction -0.998573 -0.000999564 -0.053403
    length 10.3947
    axis -23.2009 -0.134239 -0.964101 xyz
    dof rx ry rz
  end
  begin
    id 19
    name RightForeArm
    direction -0.998898 0.00868028 0.0461306
    length 8.68355
    axis -9.92322 0.0658061 0.178868 xyz
    dof rx ry rz
  end
  begin
    id 20
    name RightHand
    direction 0 0 0
    length 0
    axis 0 0 0 xyz
    dof rx ry rz
  end
  begin
    id 21
    name LeftUpLegDummy
    direction 0.718183 -0.695806 0.00816078
    length 4.904
    axis 0 0 0 xyz
  end
  begin
    id 22
    name LeftUpLeg
    direction -6.81752e-006 -0.995793 0.0916337
    length 17.4976
    axis -3.48766 0.00143442 -0.000524262 xyz
    dof rx ry rz
  end
  begin
    id 23
    name LeftLeg
    direction -0.00601358 -0.995091 -0.0987824
    length 16.5821
    axis 3.68178 -0.00654042 -0.000285133 xyz
    dof rx ry rz
  end
  begin
    id 24
    name LeftFoot
    direction -0.00417578 -0.460984 0.887399
    length 3.77069
    axis 1.87233e-006 4.66016e-005 -8.6538e-006 xyz
    dof rx ry rz
  end
  begin
    id 25
    name LeftToes
    direction 0 0 0
    length 0
    axis 0 0 0 xyz
    dof rx ry rz
  end
:hierarchy
  begin
    root RightUpLegDummy SpineDummy LeftUpLegDummy
    RightUpLegDummy RightUpLeg
    RightUpLeg RightLeg
    RightLeg RightFoot
    RightFoot RightToes
    SpineDummy Spine
    Spine Spine1
    Spine1 HEadDummy LeftShoulder1Dummy RightShoulderDummy
    HEadDummy HEad
    LeftShoulder1Dummy LeftShoulder1
    LeftShoulder1 LeftArm
    LeftArm LeftForeArm
    LeftForeArm LeftHand
    RightShoulderDummy RightShoulder
    RightShoulder RightArm
    RightArm RightForeArm
    RightForeArm RightHand
    LeftUpLegDummy LeftUpLeg
    LeftUpLeg LeftLeg
    LeftLeg LeftFoot
    LeftFoot LeftToes
  end

:SAMPLES-PER-SECOND 30
:FULLY-SPECIFIED
:DEGREES
176
root  -67.1685 41.4006 -2.90328 134.244 -87.0832 -136.637
RightUpLeg  -0.593301 -6.93896 -2.10238
RightLeg  6.2369 -3.05538 3.61907
RightFoot  -1.47604 0.131007 -1.63348
RightToes  0.000481921 0.542163 -0.142578
Spine  0.881745 0.518664 1.70087
Spine1  1.6974 0.172438 2.56573
HEad  -10.5666 0.498082 0.883479
LeftShoulder1  0.891402 -2.4583 -7.30228
LeftArm  -22.0199 9.57282 6.08598
LeftForeArm  11.4307 -7.86909 -0.49146
LeftHand  -0.25398 0.0180481 5.50724
RightShoulder  0.0183364 -3.26837 -0.722614
RightArm  -32.4968 -1.69374 -2.3142
RightForeArm  -7.5742 10.0689 2.12495
RightHand  -2.74852 9.23338 -22.0086
LeftUpLeg  6.70394 6.29126 6.38451
LeftLeg  6.22736 5.74522 -1.0774
LeftFoot  -8.6449 0.0846463 -1.39238
LeftToes  1.06246e-005 4.65868e-005 -8.65514e-006
177
root  -67.208 41.4057 -2.94712 130.536 -87.3415 -132.884
RightUpLeg  -0.479443 -6.94103 -2.12288
RightLeg  6.14723 -3.3353 3.61378
RightFoot  -1.59903 0.12401 -1.58026
RightToes  0.000481921 0.542163 -0.142578
Spine  0.711684 0.618316 1.68568
Spine1  1.97307 0.292295 2.41509
HEad  -10.7592 0.299525 0.29111
LeftShoulder1  0.812914 -1.97803 -7.15324
LeftArm  -20.7415 8.06729 5.67267
LeftForeArm  12.3642 -6.47555 -0.941704
LeftHand  -0.25398 0.0180481 5.50724
RightShoulder  0.0266363 -3.18472 -0.176264
RightArm  -30.8446 -1.24346 -2.14736
RightForeArm  -6.68781 8.09231 2.00887
RightHand  -2.67668 9.12096 -21.6125
LeftUpLeg  6.81132 6.02791 6.3402
LeftLeg  5.92025 5.69203 -1.0527
LeftFoot  -8.53923 0.0886483 -1.52778
LeftToes  1.06246e-005 4.65868e-005 -8.65514e-006
178
root  -67.2294 41.4085 -2.99199 126.49 -87.5686 -128.803
RightUpLeg  -0.40527 -6.94067 -2.13461
RightLeg  6.09538 -3.59394 3.60861
RightFoot  -1.72927 0.115554 -1.51
RightToes  0.000481921 0.542163 -0.142578
Spine  0.69972 0.685224 1.6451
Spine1  2.12013 0.399793 2.18851
HEad  -11.0734 0.31395 -0.108244
LeftShoulder1  0.737372 -1.55086 -6.87862
LeftArm  -20.5426 6.84781 4.80146
LeftForeArm  14.1073 -5.22381 -0.967502
LeftHand  -0.25398 0.0180481 5.50724
RightShoulder  0.0633046 -2.81149 0.777456
RightArm  -29.4651 -0.911961 -2.16637
RightForeArm  -5.47298 6.09208 1.8331
RightHand  -2.37246 8.13369 -20.5749
LeftUpLeg  6.85909 5.8662 6.33271
LeftLeg  5.71363 5.54177 -1.04618
LeftFoot  -8.46431 0.0936936 -1.7045
LeftToes  1.06246e-005 4.65868e-005 -8.65514e-006
179
root  -67.235 41.4096 -3.02945 120.157 -87.7571 -122.5
RightUpLeg  -0.273696 -6.94223 -2.11218
RightLeg  6.01348 -3.91007 3.61505
RightFoot  -1.81552 0.111168 -1.48498
RightToes  0.000481921 0.542163 -0.142578
Spine  0.929314 0.685217 1.56235
Spine1  2.10317 0.414199 2.11667
HEad  -11.4304 0.481039 -0.393083
LeftShoulder1  0.747011 -1.62685 -6.84462
LeftArm  -20.4325 6.45039 4.15709
LeftForeArm  15.4246 -4.32862 -0.891462
LeftHand  -0.25398 0.0180481 5.50724
RightShoulder  0.114804 -2.31955 1.46273
RightArm  -28.7103 -0.767945 -1.89253
RightForeArm  -3.07066 4.222 1.46537
RightHand  -1.97359 6.88852 -18.91
LeftUpLeg  6.86593 5.82802 6.40121
LeftLeg  5.68142 5.22501 -1.03747
LeftFoot  -8.45735 0.0969484 -1.81013
LeftToes  1.06246e-005 4.65868e-005 -8.65514e-006
180
root  -67.2326 41.4105 -3.05235 110.454 -87.9296 -112.835
RightUpLeg  -0.138626 -6.95935 -2.09073
RightLeg  5.92113 -4.31574 3.61721
RightFoot  -1.85244 0.112568 -1.52746
RightToes  0.000481921 0.542163 -0.142578
Spine  1.16052 0.646042 1.50674
Spine1  2.11841 0.353496 2.2287
HEad  -11.7381 0.63202 -0.634433
LeftShoulder1  0.815661 -1.98224 -7.19841
LeftArm  -19.5972 6.24403 3.94644
LeftForeArm  15.7322 -3.43172 -1.09733
LeftHand  -0.25398 0.0180481 5.50724
RightShoulder  0.148142 -2.00064 1.63321
RightArm  -28.0003 -0.789219 -1.3993
RightForeArm  -0.739511 2.71806 1.19288
RightHand  -1.71042 6.1709 -17.4536
LeftUpLeg  6.81896 5.8003 6.45878
LeftLeg  5.7202 4.82946 -1.00406
LeftFoot  -8.4653 0.0986544 -1.83665
LeftToes  1.06246e-005 4.65868e-005 -8.65514e-006
181
root  -67.2292 41.4114 -3.0659 97.783 -88.0686 -100.128
RightUpLeg  -0.0917936 -6.98918 -2.10097
RightLeg  5.85723 -4.75305 3.61074
RightFoot  -1.88985 0.112168 -1.53059
RightToes  0.000481921 0.542163 -0.142578
Spine  1.1755 0.586128 1.55653
Spine1  2.30002 0.284441 2.25704
HEad  -11.9053 0.828266 -0.760782
LeftShoulder1  0.863556 -2.19743 -7.51633
LeftArm  -18.5474 5.77274 3.77361
LeftForeArm  16.0141 -2.42262 -1.43194
LeftHand  -0.25398 0.0180481 5.50724
RightShoulder  0.157725 -1.92659 1.79573
RightArm  -27.0863 -0.87506 -1.20419
RightForeArm  0.0170792 1.84748 1.2344
RightHand  -1.56737 5.74046 -16.628
LeftUpLeg  6.68172 5.7165 6.45229
LeftLeg  5.74394 4.44339 -0.95436
LeftFoot  -8.45274 0.10171 -1.88416
LeftToes  1.06246e-005 4.65868e-005 -8.65514e-006
182
root  -67.2269 41.4125 -3.0801 84.8548 -88.1182 -87.1049
RightUpLeg  -0.120298 -7.01553 -2.1227
RightLeg  5.81685 -5.13195 3.61165
RightFoot  -1.93465 0.108433 -1.47854
RightToes  0.000481921 0.542163 -0.142578
Spine  1.06251 0.501832 1.68755
Spine1  2.53726 0.230558 2.06582
HEad  -11.9699 1.05149 -0.740799
LeftShoulder1  0.870591 -2.25469 -7.48498
LeftArm  -17.8693 5.44188 3.47194
LeftForeArm  16.8352 -1.7374 -1.64014
LeftHand  -0.25398 0.0180481 5.50724
RightShoulder  0.154333 -2.01736 2.23153
RightArm  -26.5052 -0.811034 -1.37578
RightForeArm  -0.583128 1.45505 1.38179
RightHand  -1.43637 5.09795 -16.1689
LeftUpLeg  6.49124 5.6551 6.4474
LeftLeg  5.758 4.06816 -0.942342
LeftFoot  -8.43524 0.108432 -1.98868
LeftToes  1.06246e-005 4.65868e-005 -8.65514e-006
183
root  -67.2244 41.4139 -3.09893 74.9603 -88.0938 -77.1161
RightUpLeg  -0.181658 -7.03187 -2.1291
RightLeg  5.81135 -5.41924 3.61383
RightFoot  -1.96682 0.108143 -1.48118
RightToes  0.000481921 0.542163 -0.142578
Spine  1.00473 0.416234 1.76282
Spine1  2.65271 0.174669 1.89851
HEad  -11.8988 1.12649 -0.634169
LeftShoulder1  0.875704 -2.33318 -7.35729
LeftArm  -17.3664 5.55867 3.33216
LeftForeArm  17.4412 -1.65707 -1.79688
LeftHand  -0.25398 0.0180481 5.50724
RightShoulder  0.139202 -2.19979 2.55208
RightArm  -26.543 -0.631078 -1.5244
RightForeArm  -1.26237 1.36933 1.41649
RightHand  -1.30993 4.38524 -15.8103
LeftUpLeg  6.32487 5.71969 6.51098
LeftLeg  5.77529 3.67098 -1.02469
LeftFoot  -8.42047 0.112406 -2.05047
LeftToes  1.06246e-005 4.65868e-005 -8.65514e-006
184
root  -67.2221 41.4149 -3.11734 68.1229 -88.0654 -70.1996
RightUpLeg  -0.267577 -7.04956 -2.14092
RightLeg  5.85876 -5.63375 3.59686
RightFoot  -2.00551 0.110733 -1.52144
RightToes  0.000481921 0.542163 -0.142578
Spine  0.995494 0.365209 1.68529
Spine1  2.64867 0.10418 2.01372
HEad  -11.4799 1.02253 -0.606354
LeftShoulder1  0.891582 -2.40337 -7.46007
LeftArm  -17.0482 5.73244 3.48863
LeftForeArm  17.4464 -1.8726 -1.92557
LeftHand  -0.25398 0.0180481 5.50724
RightShoulder  0.119331 -2.37414 2.42274
RightArm  -27.1296 -0.553123 -1.47991
RightForeArm  -0.804919 1.52947 1.24515
RightHand  -1.26483 4.21801 -15.5369
LeftUpLeg  6.20986 5.86351 6.59307
LeftLeg  5.7697 3.29424 -1.17392
LeftFoot  -8.38959 0.108635 -1.99184
LeftToes  1.06246e-005 4.65868e-005 -8.65514e-006
185
root  -67.2192 41.4159 -3.12902 62.6244 -88.0525 -64.6515
RightUpLeg  -0.322323 -7.07466 -2.18542
RightLeg  5.89903 -5.79427 3.5686
RightFoot  -2.05821 0.107675 -1.4739
RightToes  0.000481921 0.542163 -0.142578
Spine  0.966149 0.345451 1.50514
Spine1  2.64436 0.0225174 2.34184
HEad  -10.7036 0.972266 -0.751791
LeftShoulder1  0.898477 -2.3597 -7.71559
LeftArm  -17.425 5.59885 3.72797
LeftForeArm  17.6639 -2.00421 -1.79677
LeftHand  -0.25398 0.0180481 5.50724
RightShoulder  0.111937 -2.40311 2.0251
RightArm  -27.9718 -0.662009 -1.44136
RightForeArm  0.544506 1.81832 0.943972
RightHand  -1.3242 4.72632 -15.4658
LeftUpLeg  6.16045 5.91927 6.60215
LeftLeg  5.70282 3.05676 -1.2784
LeftFoot  -8.3287 0.102623 -1.89835
LeftToes  1.06246e-005 4.65868e-005 -8.65514e-006
186
root  -67.2131 41.4185 -3.13404 58.0664 -88.0517 -60.0989
RightUpLeg  -0.306295 -7.10919 -2.26231
RightLeg  5.90455 -5.89238 3.55169
RightFoot  -2.1004 0.101274 -1.37439
RightToes  0.000481921 0.542163 -0.142578
Spine  0.937063 0.33948 1.3028
Spine1  2.68672 -0.0579231 2.69984
HEad  -9.86221 1.06963 -0.982007
LeftShoulder1  0.905897 -2.32379 -7.96064
LeftArm  -18.2594 5.37324 4.00608
LeftForeArm  18.4717 -2.07926 -1.46078
LeftHand  -0.25398 0.0180481 5.50724
RightShoulder  0.11852 -2.29262 1.57198
RightArm  -28.6838 -0.863783 -1.43755
RightForeArm  1.07255 2.12749 0.736215
RightHand  -1.41366 5.22811 -15.7374
LeftUpLeg  6.19052 5.79458 6.50681
LeftLeg  5.57486 3.03911 -1.26376
LeftFoot  -8.24931 0.10291 -1.90282
LeftToes  1.06246e-005 4.65868e-005 -8.65514e-006
187
root  -67.1998 41.4195 -3.1384 54.9666 -88.0525 -57.0728
RightUpLeg  -0.244645 -7.14258 -2.32778
RightLeg  5.92874 -5.94024 3.54399
RightFoot  -2.1168 0.100195 -1.35762
RightToes  0.000481921 0.542163 -0.142578
Spine  1.0113 0.348993 1.14401
Spine1  2.71056 -0.112196 2.99676
HEad  -9.2477 1.10477 -1.14899
LeftShoulder1  0.935823 -2.44248 -8.17838
LeftArm  -18.5792 5.32177 4.45254
LeftForeArm  18.8401 -2.2931 -1.34134
LeftHand  -0.25398 0.0180481 5.50724
RightShoulder  0.119746 -2.23182 1.11669
RightArm  -29.0794 -1.01314 -1.32476
RightForeArm  0.250203 2.46527 0.73523
RightHand  -1.4427 5.17087 -16.1329
LeftUpLeg  6.26629 5.62622 6.39571
LeftLeg  5.48825 3.1133 -1.18121
LeftFoot  -8.19401 0.108057 -1.98285
LeftToes  1.06246e-005 4.65868e-005 -8.65514e-006
